<svg width="45" height="45" viewBox="0 0 45 45" fill="none" xmlns="http://www.w3.org/2000/svg">
<path d="M1.125 45H43.875C44.1734 45 44.4595 44.8815 44.6705 44.6705C44.8815 44.4595 45 44.1734 45 43.875V16.875C45 16.5766 44.8815 16.2905 44.6705 16.0795C44.4595 15.8685 44.1734 15.75 43.875 15.75H38.25V5.625C38.25 5.32663 38.1315 5.04048 37.9205 4.8295C37.7095 4.61853 37.4234 4.5 37.125 4.5H31.5V3.375C31.5 2.47989 31.1444 1.62145 30.5115 0.988515C29.8786 0.355579 29.0201 0 28.125 0H16.875C15.9799 0 15.1214 0.355579 14.4885 0.988515C13.8556 1.62145 13.5 2.47989 13.5 3.375V4.5H7.875C7.57663 4.5 7.29048 4.61853 7.0795 4.8295C6.86853 5.04048 6.75 5.32663 6.75 5.625V15.75H1.125C0.826631 15.75 0.540484 15.8685 0.329505 16.0795C0.118527 16.2905 0 16.5766 0 16.875V43.875C0 44.1734 0.118527 44.4595 0.329505 44.6705C0.540484 44.8815 0.826631 45 1.125 45ZM38.25 18H42.75V42.75H38.25V18ZM25.875 42.75H19.125V34.875H25.875V42.75ZM15.75 3.375C15.75 3.07663 15.8685 2.79048 16.0795 2.5795C16.2905 2.36853 16.5766 2.25 16.875 2.25H28.125C28.4234 2.25 28.7095 2.36853 28.9205 2.5795C29.1315 2.79048 29.25 3.07663 29.25 3.375V14.625C29.25 14.9234 29.1315 15.2095 28.9205 15.4205C28.7095 15.6315 28.4234 15.75 28.125 15.75H16.875C16.5766 15.75 16.2905 15.6315 16.0795 15.4205C15.8685 15.2095 15.75 14.9234 15.75 14.625V3.375ZM9 6.75H13.5V14.625C13.5 15.5201 13.8556 16.3786 14.4885 17.0115C15.1214 17.6444 15.9799 18 16.875 18H28.125C29.0201 18 29.8786 17.6444 30.5115 17.0115C31.1444 16.3786 31.5 15.5201 31.5 14.625V6.75H36V42.75H28.125V33.75C28.125 33.4516 28.0065 33.1655 27.7955 32.9545C27.5845 32.7435 27.2984 32.625 27 32.625H18C17.7016 32.625 17.4155 32.7435 17.2045 32.9545C16.9935 33.1655 16.875 33.4516 16.875 33.75V42.75H9V6.75ZM2.25 18H6.75V42.75H2.25V18Z" fill="white"/>
<path d="M19.125 10.125H21.375V12.375C21.375 12.6734 21.4935 12.9595 21.7045 13.1705C21.9155 13.3815 22.2016 13.5 22.5 13.5C22.7984 13.5 23.0845 13.3815 23.2955 13.1705C23.5065 12.9595 23.625 12.6734 23.625 12.375V10.125H25.875C26.1734 10.125 26.4595 10.0065 26.6705 9.7955C26.8815 9.58452 27 9.29837 27 9C27 8.70163 26.8815 8.41548 26.6705 8.2045C26.4595 7.99353 26.1734 7.875 25.875 7.875H23.625V5.625C23.625 5.32663 23.5065 5.04048 23.2955 4.82951C23.0845 4.61853 22.7984 4.5 22.5 4.5C22.2016 4.5 21.9155 4.61853 21.7045 4.82951C21.4935 5.04048 21.375 5.32663 21.375 5.625V7.875H19.125C18.8266 7.875 18.5405 7.99353 18.3295 8.2045C18.1185 8.41548 18 8.70163 18 9C18 9.29837 18.1185 9.58452 18.3295 9.7955C18.5405 10.0065 18.8266 10.125 19.125 10.125ZM14.625 23.625H16.875C17.1734 23.625 17.4595 23.5065 17.6705 23.2955C17.8815 23.0845 18 22.7984 18 22.5C18 22.2016 17.8815 21.9155 17.6705 21.7045C17.4595 21.4935 17.1734 21.375 16.875 21.375H14.625C14.3266 21.375 14.0405 21.4935 13.8295 21.7045C13.6185 21.9155 13.5 22.2016 13.5 22.5C13.5 22.7984 13.6185 23.0845 13.8295 23.2955C14.0405 23.5065 14.3266 23.625 14.625 23.625ZM18 28.125C18 27.8266 17.8815 27.5405 17.6705 27.3295C17.4595 27.1185 17.1734 27 16.875 27H14.625C14.3266 27 14.0405 27.1185 13.8295 27.3295C13.6185 27.5405 13.5 27.8266 13.5 28.125C13.5 28.4234 13.6185 28.7095 13.8295 28.9205C14.0405 29.1315 14.3266 29.25 14.625 29.25H16.875C17.1734 29.25 17.4595 29.1315 17.6705 28.9205C17.8815 28.7095 18 28.4234 18 28.125ZM21.375 23.625H23.625C23.9234 23.625 24.2095 23.5065 24.4205 23.2955C24.6315 23.0845 24.75 22.7984 24.75 22.5C24.75 22.2016 24.6315 21.9155 24.4205 21.7045C24.2095 21.4935 23.9234 21.375 23.625 21.375H21.375C21.0766 21.375 20.7905 21.4935 20.5795 21.7045C20.3685 21.9155 20.25 22.2016 20.25 22.5C20.25 22.7984 20.3685 23.0845 20.5795 23.2955C20.7905 23.5065 21.0766 23.625 21.375 23.625ZM21.375 29.25H23.625C23.9234 29.25 24.2095 29.1315 24.4205 28.9205C24.6315 28.7095 24.75 28.4234 24.75 28.125C24.75 27.8266 24.6315 27.5405 24.4205 27.3295C24.2095 27.1185 23.9234 27 23.625 27H21.375C21.0766 27 20.7905 27.1185 20.5795 27.3295C20.3685 27.5405 20.25 27.8266 20.25 28.125C20.25 28.4234 20.3685 28.7095 20.5795 28.9205C20.7905 29.1315 21.0766 29.25 21.375 29.25ZM28.125 23.625H30.375C30.6734 23.625 30.9595 23.5065 31.1705 23.2955C31.3815 23.0845 31.5 22.7984 31.5 22.5C31.5 22.2016 31.3815 21.9155 31.1705 21.7045C30.9595 21.4935 30.6734 21.375 30.375 21.375H28.125C27.8266 21.375 27.5405 21.4935 27.3295 21.7045C27.1185 21.9155 27 22.2016 27 22.5C27 22.7984 27.1185 23.0845 27.3295 23.2955C27.5405 23.5065 27.8266 23.625 28.125 23.625ZM28.125 29.25H30.375C30.6734 29.25 30.9595 29.1315 31.1705 28.9205C31.3815 28.7095 31.5 28.4234 31.5 28.125C31.5 27.8266 31.3815 27.5405 31.1705 27.3295C30.9595 27.1185 30.6734 27 30.375 27H28.125C27.8266 27 27.5405 27.1185 27.3295 27.3295C27.1185 27.5405 27 27.8266 27 28.125C27 28.4234 27.1185 28.7095 27.3295 28.9205C27.5405 29.1315 27.8266 29.25 28.125 29.25Z" fill="white"/>
</svg>
