<svg width="163" height="70" viewBox="0 0 163 70" fill="none" xmlns="http://www.w3.org/2000/svg">
<g id="logo">
<path id="Vector" fill-rule="evenodd" clip-rule="evenodd" d="M61.1831 36.9984C61.1831 36.9984 71.0715 28.6525 70.6767 16.8489C70.2818 5.04541 64.4943 3.57352 58.6645 7.16169C52.8347 10.7498 47.4995 15.5623 45.6835 16.2677C43.8676 16.9731 40.6016 19.1952 36.965 17.2364C33.3284 15.2777 26.463 11.2912 23.7903 9.68037C21.1176 8.06958 14.3699 5.23721 11.3906 10.0679C8.41142 14.8985 7.40084 22.7018 8.87195 30.2174C10.3431 37.7329 13.7915 48.9888 15.0718 51.7231C16.3521 54.4574 19.0215 58.9692 19.9154 60.4416C20.9095 62.0792 22.7509 64.7488 23.2091 65.2852C23.6673 65.8217 25.7722 68.8279 27.4715 64.8978C29.1708 60.9676 31.8639 56.7948 33.0901 55.2105C34.3163 53.6262 38.458 48.6974 41.2274 47.8482C41.2274 47.8482 38.0074 50.9774 36.7713 52.6918C35.5158 54.4332 33.8817 57.2448 33.0901 58.6979C32.1576 60.4106 30.7458 63.8436 30.1839 65.0915C29.6221 66.3394 28.2077 69.2425 26.309 69.7414C24.4103 70.2403 22.2853 70.2211 19.7217 67.8039C17.158 65.3868 12.7346 59.1871 9.84068 54.048C7.42216 49.7533 4.36079 42.5959 1.70338 33.7048C0.102269 28.3481 -0.250541 22.3286 0.153417 17.6239C0.557376 12.9192 2.59189 7.30913 4.99705 5.22423C7.4022 3.13934 9.33791 0.821761 14.4906 0.186858C19.6432 -0.448045 23.7173 0.602442 26.309 2.31806C28.9007 4.03367 33.3032 7.22717 34.4463 7.93667C35.5894 8.64616 37.6071 10.367 38.515 10.8428C39.4229 11.3187 42.0574 12.4864 46.2648 9.48663C50.4721 6.48687 54.4302 3.67853 56.727 2.70555C59.0239 1.73256 64.0787 -0.449788 69.1267 2.12431C74.1747 4.69841 73.8326 11.5959 73.7766 13.3615C73.7206 15.1271 73.1487 21.0462 71.2579 25.18C69.3671 29.3137 66.5821 33.908 61.1831 36.9984Z" fill="#104099"/>
<path id="Vector_2" fill-rule="evenodd" clip-rule="evenodd" d="M24.7591 59.6666C24.7591 59.6666 18.806 46.9823 17.203 39.1296C15.5999 31.2769 14.991 26.3116 15.0718 24.2113C15.1526 22.1109 15.3992 18.6159 16.0405 16.8489C16.541 15.4701 17.8338 12.8225 21.4654 15.1052C25.0969 17.3879 29.357 20.2236 31.5401 21.3051C32.9148 21.9861 36.915 23.1743 39.4837 23.4363C36.8694 22.6475 34.3878 21.4721 32.1214 19.9489C28.0461 17.2327 24.0899 14.3341 22.6279 13.1678C20.4428 11.4241 14.235 9.84951 12.7469 15.6865C11.2587 21.5234 12.0835 25.5371 12.3594 28.6674C12.7817 32.9547 13.6917 37.1798 15.0718 41.2608C16.6272 45.717 21.7196 55.9572 24.7591 59.6666Z" fill="#104099"/>
<path id="Vector_3" fill-rule="evenodd" clip-rule="evenodd" d="M73.9704 19.9489L74.5516 16.4615C74.5516 16.4615 79.3565 11.8405 85.7889 9.6804C92.2291 7.51801 97.5649 6.54173 106.132 5.99924C114.516 5.46916 120.116 6.30691 127.638 7.35546C135.16 8.40401 149.307 11.4507 152.05 12.5866C152.05 12.5866 138.162 9.93905 127.638 8.71168C117.113 7.4843 110.955 7.45233 100.126 8.90542C94.866 9.61143 87.2264 11.5838 84.2389 12.9741C82.3687 13.8446 75.4491 18.4534 73.9704 19.9489Z" fill="#28AF88"/>
<path id="Vector_4" fill-rule="evenodd" clip-rule="evenodd" d="M77.2642 19.5613C77.2642 19.5613 81.2941 15.9646 83.6578 14.7177C85.8512 13.5603 91.2121 11.4843 97.0262 11.6178L95.2825 14.9114C92.4133 14.9085 89.5531 15.2335 86.7577 15.8802C81.7242 17.1064 79.4454 18.3522 77.2642 19.5613Z" fill="#28AF88"/>
<path id="Vector_5" fill-rule="evenodd" clip-rule="evenodd" d="M45.8773 48.0419C45.8773 48.0419 54.4346 46.5069 56.5332 45.3295C58.4434 44.2579 60.7307 42.6998 60.7956 40.0984C60.7956 40.0984 62.5837 41.1882 62.1519 42.8108C61.8225 44.0488 60.3016 44.9515 58.8582 45.717C57.6196 46.374 55.464 47.0455 53.0458 47.4607C50.6023 47.8803 45.8773 48.0419 45.8773 48.0419Z" fill="#28AF88"/>
<path id="Shape 5 copy" fill-rule="evenodd" clip-rule="evenodd" d="M46.5186 52.6081C46.5186 52.6081 52.491 51.2193 54.4021 50.3668C56.0606 49.6273 58.4568 48.7959 59.052 46.8794C59.052 46.8794 60.4619 47.45 59.827 48.8168C59.4544 49.6188 58.4781 50.0458 57.2814 50.6805C56.2545 51.2251 54.467 51.7819 52.4621 52.1262C50.4361 52.474 46.5186 52.6081 46.5186 52.6081Z" fill="#28AF88"/>
<path id="Shape 5 copy 2" fill-rule="evenodd" clip-rule="evenodd" d="M47.2937 56.8703C47.2937 56.8703 52.0029 55.7751 53.5096 55.1032C54.8174 54.52 56.7064 53.8645 57.1759 52.3535C57.1759 52.3535 58.2876 52.8034 57.7869 53.881C57.4932 54.5134 56.7233 54.8497 55.7797 55.3504C54.9701 55.7799 53.5608 56.2189 51.98 56.4904C50.3828 56.7647 47.2937 56.8703 47.2937 56.8703Z" fill="#28AF88"/>
<path id="Vector_6" fill-rule="evenodd" clip-rule="evenodd" d="M48.5898 61.7978C48.5898 61.7978 49.326 62.844 49.5585 62.9602C49.791 63.0765 50.2575 64.342 51.6897 62.9602C53.1218 61.5784 54.0483 60.4803 54.4021 59.6666C54.7559 58.8528 55.0884 57.59 54.7896 57.1479C54.5959 56.8623 54.3322 57.5042 54.0146 57.9228C53.531 58.5399 52.9404 59.0649 52.2709 59.4728C51.5734 59.8797 50.5441 59.9496 49.946 60.054C49.3479 60.1585 47.2502 60.1346 48.5898 61.7978Z" fill="#28AF88"/>
<g id="DENTITY">
<path d="M94.9854 23.9971C96.2879 23.9971 97.4261 24.2553 98.4001 24.7716C99.374 25.2879 100.125 26.0154 100.653 26.9542C101.193 27.8812 101.463 28.9548 101.463 30.1752C101.463 31.3838 101.193 32.4575 100.653 33.3963C100.125 34.335 99.3682 35.0625 98.3825 35.5788C97.4085 36.0951 96.2762 36.3533 94.9854 36.3533H90.3563V23.9971H94.9854ZM94.7918 33.7483C95.93 33.7483 96.816 33.4373 97.4496 32.8154C98.0833 32.1935 98.4001 31.3134 98.4001 30.1752C98.4001 29.037 98.0833 28.1511 97.4496 27.5174C96.816 26.8838 95.93 26.5669 94.7918 26.5669H93.3661V33.7483H94.7918Z" fill="#28AF88"/>
<path d="M106.155 26.4085V28.9079H110.185V31.2313H106.155V33.9419H110.713V36.3533H103.145V23.9971H110.713V26.4085H106.155Z" fill="#28AF88"/>
<path d="M123.721 36.3533H120.711L115.677 28.7319V36.3533H112.667V23.9971H115.677L120.711 31.6537V23.9971H123.721V36.3533Z" fill="#28AF88"/>
<path d="M134.791 23.9971V26.4085H131.518V36.3533H128.508V26.4085H125.234V23.9971H134.791Z" fill="#28AF88"/>
<path d="M139.312 23.9971V36.3533H136.302V23.9971H139.312Z" fill="#28AF88"/>
<path d="M150.382 23.9971V26.4085H147.108V36.3533H144.098V26.4085H140.824V23.9971H150.382Z" fill="#28AF88"/>
<path d="M162.488 23.9971L158.211 32.2698V36.3533H155.201V32.2698L150.924 23.9971H154.339L156.733 29.1719L159.109 23.9971H162.488Z" fill="#28AF88"/>
</g>
<g id="Dental">
<path d="M76.6507 40.9558C78.8333 40.9558 80.7191 41.3674 82.3081 42.1906C83.9163 42.9947 85.1416 44.153 85.984 45.6655C86.8455 47.1779 87.2763 48.9584 87.2763 51.007C87.2763 53.0555 86.8455 54.836 85.984 56.3485C85.1416 57.8418 83.9163 58.9905 82.3081 59.7946C80.7191 60.5795 78.8333 60.972 76.6507 60.972H70.419V40.9558H76.6507ZM76.6507 58.8182C79.2353 58.8182 81.2073 58.1385 82.5666 56.7792C83.9259 55.4008 84.6055 53.4767 84.6055 51.007C84.6055 48.5181 83.9163 46.5749 82.5379 45.1773C81.1786 43.7797 79.2162 43.0809 76.6507 43.0809H73.0323V58.8182H76.6507Z" fill="#104099"/>
<path d="M105.082 52.5003C105.082 52.9981 105.053 53.5246 104.996 54.0798H92.4177C92.5134 55.6305 93.0399 56.8462 93.9971 57.7269C94.9735 58.5884 96.1509 59.0192 97.5294 59.0192C98.659 59.0192 99.5971 58.7607 100.344 58.2438C101.11 57.7078 101.646 56.9994 101.952 56.1187H104.766C104.345 57.6312 103.503 58.866 102.239 59.8233C100.976 60.7614 99.4056 61.2305 97.5294 61.2305C96.0361 61.2305 94.6959 60.8954 93.5089 60.2253C92.3411 59.5553 91.4221 58.6076 90.752 57.3823C90.0819 56.1379 89.7469 54.702 89.7469 53.0746C89.7469 51.4473 90.0724 50.021 90.7233 48.7957C91.3742 47.5704 92.2836 46.6323 93.4515 45.9814C94.6385 45.3113 95.9978 44.9763 97.5294 44.9763C99.0227 44.9763 100.344 45.3017 101.492 45.9527C102.641 46.6036 103.522 47.5034 104.134 48.6521C104.766 49.7817 105.082 51.0644 105.082 52.5003ZM102.383 51.9547C102.383 50.9591 102.163 50.1071 101.722 49.3988C101.282 48.6713 100.679 48.1256 99.913 47.7619C99.1663 47.379 98.3335 47.1875 97.4145 47.1875C96.0935 47.1875 94.964 47.6087 94.0258 48.4511C93.1069 49.2935 92.5804 50.4613 92.4464 51.9547H102.383Z" fill="#104099"/>
<path d="M116.199 44.9475C118.114 44.9475 119.665 45.5315 120.852 46.6993C122.039 47.848 122.632 49.5136 122.632 51.6962V60.972H120.047V52.0695C120.047 50.4996 119.655 49.3031 118.87 48.4798C118.085 47.6374 117.013 47.2162 115.654 47.2162C114.275 47.2162 113.174 47.647 112.351 48.5085C111.547 49.3701 111.145 50.6241 111.145 52.2705V60.972H108.532V45.2347H111.145V47.4747C111.662 46.6706 112.361 46.0484 113.241 45.608C114.141 45.1677 115.127 44.9475 116.199 44.9475Z" fill="#104099"/>
<path d="M130.089 47.3885V56.6644C130.089 57.4302 130.251 57.9758 130.577 58.3013C130.902 58.6076 131.467 58.7607 132.271 58.7607H134.195V60.972H131.84C130.385 60.972 129.294 60.637 128.566 59.9669C127.839 59.2968 127.475 58.196 127.475 56.6644V47.3885H125.436V45.2347H127.475V41.2717H130.089V45.2347H134.195V47.3885H130.089Z" fill="#104099"/>
<path d="M136.385 53.0459C136.385 51.4377 136.711 50.0306 137.362 48.8244C138.012 47.5991 138.903 46.6515 140.032 45.9814C141.181 45.3113 142.454 44.9763 143.852 44.9763C145.23 44.9763 146.427 45.273 147.441 45.8665C148.456 46.46 149.212 47.2067 149.71 48.1065V45.2347H152.352V60.972H149.71V58.0428C149.193 58.9618 148.418 59.7276 147.384 60.3402C146.369 60.9337 145.182 61.2305 143.823 61.2305C142.425 61.2305 141.162 60.8859 140.032 60.1966C138.903 59.5074 138.012 58.5406 137.362 57.2961C136.711 56.0517 136.385 54.635 136.385 53.0459ZM149.71 53.0746C149.71 51.8876 149.471 50.8538 148.992 49.9731C148.514 49.0925 147.863 48.4224 147.039 47.9629C146.235 47.4843 145.345 47.245 144.369 47.245C143.392 47.245 142.502 47.4747 141.698 47.9342C140.894 48.3937 140.252 49.0637 139.774 49.9444C139.295 50.8251 139.056 51.8589 139.056 53.0459C139.056 54.2521 139.295 55.305 139.774 56.2049C140.252 57.0855 140.894 57.7652 141.698 58.2438C142.502 58.7033 143.392 58.9331 144.369 58.9331C145.345 58.9331 146.235 58.7033 147.039 58.2438C147.863 57.7652 148.514 57.0855 148.992 56.2049C149.471 55.305 149.71 54.2616 149.71 53.0746Z" fill="#104099"/>
<path d="M159.382 39.7209V60.972H156.768V39.7209H159.382Z" fill="#104099"/>
</g>
</g>
</svg>
