<svg width="17" height="18" viewBox="0 0 17 18" fill="none" xmlns="http://www.w3.org/2000/svg">
<path d="M8.06896 3.10345H9.62069V4.34483L11.0601 3.10345H13.0345C13.3774 3.10345 13.6552 2.82569 13.6552 2.48276V0.62069C13.6552 0.277759 13.3774 0 13.0345 0H8.06896C7.72603 0 7.44828 0.277759 7.44828 0.62069V2.48276C7.44828 2.82569 7.72603 3.10345 8.06896 3.10345ZM12.4138 1.24138H13.0345V1.86207H12.4138V1.24138ZM9.31034 1.24138H11.7931V1.86207H9.31034V1.24138ZM8.06896 1.24138H8.68966V1.86207H8.06896V1.24138ZM11.4828 15.5172V18H13.3122L13.064 15.5172H11.4828ZM11.4828 14.2759V14.8966H14.5862C15.4418 14.8966 16.1379 14.2004 16.1379 13.3448V9.93103H15.5172V12.7241C15.5172 13.5797 14.8211 14.2759 13.9655 14.2759H11.4828ZM2.7931 13.6552H3.72414V14.2759H2.7931V17.3793H0V18H3.53231L4.153 16.7586H9.50218L10.1229 18H10.8621V14.2759H4.34483V13.6552H10.8621V13.0345H2.7931V13.6552ZM14.2759 8.72725C14.2759 8.53537 14.1198 8.37931 13.9279 8.37931C13.8357 8.37953 13.7473 8.41612 13.6818 8.48114L11.6113 10.5517H8.68966C8.51842 10.5517 8.37931 10.6908 8.37931 10.8621C8.37931 11.0333 8.51842 11.1724 8.68966 11.1724H11.975L14.174 8.97331C14.239 8.9079 14.2756 8.8195 14.2759 8.72728V8.72725ZM12.4138 5.89655V6.51724C12.4138 7.20186 12.9706 7.75862 13.6552 7.75862C14.3398 7.75862 14.8966 7.20186 14.8966 6.51724V5.89655C14.8966 5.21193 14.3398 4.65517 13.6552 4.65517C12.9706 4.65517 12.4138 5.21193 12.4138 5.89655Z" fill="white"/>
</svg>
