<svg width="17" height="18" viewBox="0 0 17 18" fill="none" xmlns="http://www.w3.org/2000/svg">
<path d="M4.4828 18C4.7602 18 5.0442 17.9984 5.3344 17.9984H10.8278C11.1176 17.9984 11.4016 18 11.679 18C14.2208 18 16.163 17.87 16.163 15.2128C16.163 12.4316 14.036 10.1484 11.3196 9.90021C11.298 10.8732 8.082 13.2744 8.082 13.2744C8.082 13.2744 4.8652 10.8734 4.8434 9.90041C2.1274 10.1484 0 12.4316 0 15.2128C0 17.87 1.9414 18 4.4828 18ZM10.4814 14.3714C10.4814 14.2922 10.5528 14.2284 10.6416 14.2284H11.5104V13.36C11.5104 13.272 11.5738 13.1998 11.653 13.1998H12.5104C12.5892 13.1998 12.653 13.2714 12.653 13.36V14.2286H13.5214C13.6094 14.2286 13.6814 14.2924 13.6814 14.3716V15.2286C13.6814 15.3078 13.61 15.3716 13.5214 15.3716H12.6528V16.24C12.6528 16.3284 12.5888 16.4 12.5098 16.4H11.6528C11.5736 16.4 11.5098 16.3286 11.5098 16.24V15.3714H10.6414C10.553 15.3714 10.4812 15.3076 10.4812 15.2284L10.4814 14.3714Z" fill="white"/>
<path d="M8.083 10.5984C10.5398 10.5984 12.5312 6.9042 12.5312 4.4476C12.5312 1.9914 10.5398 0 8.083 0C5.6266 0 3.6352 1.9914 3.6352 4.4476C3.6352 6.9042 5.6266 10.5984 8.083 10.5984Z" fill="white"/>
</svg>
