<svg width="18" height="18" viewBox="0 0 18 18" fill="none" xmlns="http://www.w3.org/2000/svg">
<path d="M9 0C7.21997 0 5.47991 0.527841 3.99987 1.51677C2.51983 2.50571 1.36628 3.91131 0.685088 5.55585C0.00389955 7.20038 -0.17433 9.00998 0.172936 10.7558C0.520203 12.5016 1.37737 14.1053 2.63604 15.364C3.89471 16.6226 5.49836 17.4798 7.24419 17.8271C8.99002 18.1743 10.7996 17.9961 12.4442 17.3149C14.0887 16.6337 15.4943 15.4802 16.4832 14.0001C17.4722 12.5201 18 10.78 18 9C17.9974 6.61383 17.0484 4.32613 15.3611 2.63886C13.6739 0.951584 11.3862 0.0025525 9 0ZM12.2143 7.07143C12.3848 7.07143 12.5483 7.13916 12.6689 7.25972C12.7894 7.38027 12.8571 7.54379 12.8571 7.71428C12.8571 7.88478 12.7894 8.04829 12.6689 8.16885C12.5483 8.28941 12.3848 8.35714 12.2143 8.35714H10.8643C10.7255 9.03325 10.3732 9.64686 9.85911 10.1074C9.34507 10.568 8.69659 10.8511 8.00936 10.9151L11.2725 12.9549C11.4174 13.0452 11.5205 13.1895 11.5591 13.3558C11.5977 13.5222 11.5686 13.6971 11.4782 13.842C11.3879 13.9869 11.2436 14.09 11.0772 14.1286C10.9109 14.1672 10.736 14.1381 10.5911 14.0477L5.44822 10.8334C5.32886 10.7601 5.23673 10.6498 5.18584 10.5192C5.13495 10.3887 5.12809 10.2452 5.16629 10.1104C5.2045 9.97561 5.28568 9.857 5.3975 9.77261C5.50931 9.68821 5.64563 9.64265 5.78572 9.64286H7.71429C8.11174 9.64121 8.49898 9.5168 8.82302 9.28666C9.14707 9.05651 9.39209 8.73187 9.52457 8.35714H5.78572C5.61522 8.35714 5.45171 8.28941 5.33115 8.16885C5.21059 8.04829 5.14286 7.88478 5.14286 7.71428C5.14286 7.54379 5.21059 7.38027 5.33115 7.25972C5.45171 7.13916 5.61522 7.07143 5.78572 7.07143H9.52457C9.39209 6.6967 9.14707 6.37206 8.82302 6.14191C8.49898 5.91177 8.11174 5.78736 7.71429 5.78571H5.78572C5.61522 5.78571 5.45171 5.71798 5.33115 5.59742C5.21059 5.47687 5.14286 5.31335 5.14286 5.14286C5.14286 4.97236 5.21059 4.80885 5.33115 4.68829C5.45171 4.56773 5.61522 4.5 5.78572 4.5H12.2143C12.3848 4.5 12.5483 4.56773 12.6689 4.68829C12.7894 4.80885 12.8571 4.97236 12.8571 5.14286C12.8571 5.31335 12.7894 5.47687 12.6689 5.59742C12.5483 5.71798 12.3848 5.78571 12.2143 5.78571H10.269C10.5612 6.16421 10.7645 6.60365 10.8636 7.07143H12.2143Z" fill="white"/>
</svg>
