<svg width="53" height="45" viewBox="0 0 53 45" fill="none" xmlns="http://www.w3.org/2000/svg">
<path d="M51.3169 12.3733H46.6146V7.67093C46.6146 7.10644 46.1568 6.64868 45.5923 6.64868H44.7122C42.2667 2.53599 37.8318 0 33.0287 0C29.3393 0 25.8578 1.47939 23.3073 4.09532C20.7569 1.47939 17.2753 0 13.5858 0C6.09462 0 0 6.09462 0 13.5858C0 16.3342 0.5974 18.9758 1.77564 21.4372C2.15398 22.2268 2.58871 22.9881 3.07645 23.7152C4.10564 25.2488 4.84871 26.8769 5.2849 28.5538L8.27753 40.0626C9.01467 42.8975 11.5753 44.8776 14.5044 44.8776C17.315 44.8776 19.7781 43.0787 20.6333 40.4015L23.1513 32.5199C23.1632 32.483 23.1877 32.406 23.3073 32.406C23.4269 32.406 23.4514 32.483 23.4633 32.5199L25.9813 40.4015C26.8365 43.0787 29.2996 44.8776 32.1101 44.8776C35.0393 44.8776 37.5999 42.8976 38.3371 40.0626L41.3297 28.5539C41.566 27.6453 41.896 26.7435 42.3117 25.8669H45.5923C46.1568 25.8669 46.6146 25.4091 46.6146 24.8446V20.1423H51.3169C51.8814 20.1423 52.3391 19.6846 52.3391 19.1201V13.3955C52.3391 12.831 51.8814 12.3733 51.3169 12.3733ZM39.3511 28.0393L36.3585 39.5481C35.8555 41.4823 34.1085 42.8331 32.1101 42.8331C30.1926 42.8331 28.5124 41.6059 27.9288 39.7793L25.4108 31.8977C25.1127 30.9645 24.287 30.3615 23.3073 30.3615C22.3276 30.3615 21.5019 30.9645 21.2038 31.8977L18.6858 39.7793C18.1022 41.6059 16.422 42.8331 14.5044 42.8331C12.506 42.8331 10.759 41.4823 10.2561 39.5481L7.26346 28.0393C6.76931 26.1391 5.93178 24.3011 4.77409 22.576C4.34122 21.9307 3.95542 21.2552 3.61967 20.5545C2.57452 18.3709 2.04449 16.0262 2.04449 13.5858C2.04449 7.22185 7.22185 2.04449 13.5858 2.04449C16.7648 2.04449 19.7621 3.33743 21.937 5.61979C20.7428 6.78045 19.1744 7.43223 17.5231 7.43223C16.9586 7.43223 16.5009 7.88999 16.5009 8.45448C16.5009 9.01896 16.9586 9.47672 17.5231 9.47672C20.0686 9.47672 22.4647 8.3086 24.0927 6.2817C26.2965 3.59278 29.5568 2.04449 33.0286 2.04449C36.6848 2.04449 40.0892 3.77515 42.2527 6.64868H39.8677C39.3032 6.64868 38.8454 7.10644 38.8454 7.67093V12.3733H34.1431C33.5786 12.3733 33.1208 12.831 33.1208 13.3955V19.1201C33.1208 19.6846 33.5786 20.1423 34.1431 20.1423H38.8454V24.8446C38.8454 25.4091 39.3032 25.8669 39.8677 25.8669H40.0775C39.787 26.5739 39.5443 27.2997 39.3511 28.0393ZM50.2947 18.0978H45.5923C45.0278 18.0978 44.5701 18.5556 44.5701 19.1201V23.8224H40.89V19.1201C40.89 18.5556 40.4322 18.0978 39.8678 18.0978H35.1654V14.4177H39.8678C40.4322 14.4177 40.89 13.96 40.89 13.3955V8.69317H44.5701V13.3955C44.5701 13.96 45.0278 14.4177 45.5923 14.4177H50.2947V18.0978Z" fill="white"/>
</svg>
