<svg width="96" height="70" viewBox="0 0 96 70" fill="none" xmlns="http://www.w3.org/2000/svg">
<g id="Group 112">
<path id="Vector" d="M95.1726 36.6087C95.1429 36.5873 95.1077 36.5727 95.0701 36.5662C95.0325 36.5596 94.9937 36.5613 94.957 36.5711C94.8739 36.5937 94.7978 36.6133 94.7259 36.632L94.6908 36.6411C94.5137 36.6869 94.3606 36.7263 94.209 36.7802C91.8138 37.6231 89.9281 39.0673 88.444 41.1949C88.0775 41.7206 87.7936 42.267 87.5675 42.812C87.9383 40.979 88.0242 40.2648 88.0899 38.2138C88.093 38.1277 88.093 38.0401 88.093 37.9532C88.093 37.716 88.093 37.4918 88.1515 37.2873C88.2217 37.045 88.3628 36.8033 88.4994 36.5694C88.5378 36.5032 88.5762 36.437 88.608 36.3788C88.6251 36.3641 88.6457 36.3529 88.6684 36.3463C89.3534 36.2536 89.9591 35.9961 90.5207 35.559C91.0865 35.1163 91.5519 34.5746 91.904 33.9482C93.168 31.7032 93.8005 29.2218 93.7845 26.5738C93.7831 26.3183 93.7492 26.0696 93.7119 25.7991C93.694 25.6748 93.6778 25.5503 93.6634 25.4257C93.6595 25.3911 93.6457 25.3579 93.6233 25.3293C93.6009 25.3007 93.5707 25.2776 93.5355 25.2622C93.5 25.2471 93.4608 25.2401 93.4215 25.2418C93.3821 25.2435 93.3439 25.254 93.3103 25.2722C93.2676 25.2958 93.231 25.3151 93.1979 25.3322C93.1336 25.366 93.0847 25.3925 93.0384 25.4221C91.9601 26.1066 91.0092 26.9588 90.2115 27.9545C88.9098 29.5817 88.1527 31.4217 87.9488 33.4459L87.8874 32.769L87.8802 32.6872C87.8003 31.8026 87.7177 30.8878 87.6503 29.9882C87.6334 29.7604 87.584 29.5388 87.5362 29.3244C87.444 28.9122 87.3569 28.5229 87.4963 28.115C87.5281 28.0228 87.5548 27.9299 87.5816 27.8373C87.6475 27.6079 87.9657 27.2545 88.4545 26.8681L88.4728 26.8535C88.6531 26.7182 89.579 25.9679 90.1043 24.4838C90.6374 22.976 90.5971 21.4005 90.5677 20.2501L90.567 20.2195C90.5278 18.6381 90.3349 17.4464 89.9414 16.355C89.8879 16.2129 89.8295 16.0722 89.7662 15.9332C89.733 15.8579 89.6991 15.7801 89.6643 15.6986C89.6502 15.6649 89.6264 15.635 89.5951 15.6121C89.5639 15.5891 89.5264 15.5738 89.4864 15.5677L89.447 15.5646C89.4127 15.5646 89.3788 15.5714 89.3478 15.5844C89.3168 15.5975 89.2896 15.6165 89.2679 15.6401L88.8857 16.0526C87.0529 18.0324 86.1526 20.3544 86.2089 22.9542C86.2198 23.4265 86.2589 23.898 86.3259 24.3666C85.8671 22.9603 85.3218 21.5772 84.6926 20.2235C84.6794 20.1928 84.6718 20.1603 84.6704 20.1275L84.6661 19.9452C84.6596 19.6821 84.653 19.41 84.6656 19.1422C84.6675 19.0978 84.7 19.0181 84.7676 18.9396C84.8635 18.8274 84.97 18.7176 85.0803 18.6034C85.2682 18.4097 85.4623 18.2096 85.6161 17.9813C86.1113 17.2466 86.3438 16.3787 86.3477 15.2497C86.3543 13.9206 86.123 12.5219 85.6187 10.8477C85.3432 9.93436 84.9273 8.74779 84.1528 7.67204C84.0982 7.59908 84.0402 7.52817 83.9789 7.45951C83.949 7.42577 83.9197 7.39157 83.8911 7.35694C83.8472 7.30471 83.7865 7.27426 83.6886 7.27426C83.6501 7.2768 83.6128 7.28778 83.5803 7.30619C83.5477 7.32461 83.5208 7.34989 83.5019 7.37978C82.5297 8.93389 82.0455 10.5941 82.0226 12.4555C82.0039 13.7885 82.2051 15.1168 82.6197 16.3984C81.7495 14.9897 80.7827 13.6296 79.7245 12.3257L79.7004 12.2963C79.6765 12.2682 79.6665 12.2544 79.6682 12.2641C79.6119 11.9164 79.5639 11.5677 79.5244 11.2182C79.5252 11.2138 79.5314 11.1892 79.5806 11.1165C79.65 11.0116 79.7262 10.9088 79.8071 10.8001C79.9695 10.5815 80.1371 10.3552 80.2445 10.1018C80.5688 9.33716 80.6416 8.46992 80.4666 7.45147C80.0824 5.1974 78.9605 3.1677 77.0375 1.24606C76.8396 1.04876 76.6209 0.874295 76.3896 0.689892L76.3256 0.638504C76.2351 0.565969 76.1422 0.491743 76.0484 0.413288C76.0185 0.388214 75.9817 0.370601 75.9416 0.362243C75.9016 0.353885 75.8597 0.35508 75.8204 0.365707C75.7816 0.376644 75.7467 0.396311 75.7191 0.42278C75.6916 0.449249 75.6722 0.481612 75.663 0.516697L75.621 0.679953C75.5923 0.788226 75.5701 0.87366 75.5537 0.959518C75.2948 2.32774 75.3137 3.79323 75.6117 5.44017C75.9073 7.07357 76.4963 8.48239 77.4 9.70618C76.0448 8.29186 74.7266 7.10424 73.349 6.05174C73.3417 6.04106 73.3363 6.02943 73.333 6.01727C73.4407 5.19571 73.2119 4.42172 72.6332 3.65112C71.8732 2.63839 70.8172 1.86652 69.4945 1.3573C68.703 1.0532 67.8829 0.783997 67.0799 0.520292C66.6953 0.393832 66.3106 0.267795 65.9145 0.132665C65.5165 -0.00754004 65.3463 -0.0324937 65.2539 0.043213C65.135 0.141336 65.1636 0.225079 65.2155 0.377338L65.2322 0.427033C65.7176 1.87519 66.3617 3.02052 67.2019 3.92836C68.7443 5.59666 70.5481 6.44423 72.7136 6.5191C72.7896 6.52311 72.8497 6.54172 72.8743 6.55864C73.1792 6.76081 73.4036 6.92258 73.6021 7.08288C74.2416 7.60161 74.8587 8.14167 75.452 8.7019C74.5528 8.20706 73.4538 7.98374 72.2161 8.03915C71.5387 8.06939 70.8664 8.15736 70.2162 8.24238L70.1914 8.24576C69.9992 8.27071 69.808 8.29545 69.6172 8.31935C69.1994 8.36947 68.7782 8.43503 68.4062 8.49255C68.2555 8.51644 67.8957 8.58898 67.8129 8.74356C67.7842 8.79643 67.7866 8.85437 67.8191 8.90703C67.8478 8.95292 67.8793 8.99606 67.9137 9.03539C68.9873 10.2693 70.2122 11.082 71.6581 11.5195C73.4211 12.0558 75.0403 12.0116 76.4953 11.3808C76.7178 11.2723 76.9862 11.2174 77.2928 11.2174C77.5241 11.2174 77.6977 11.2497 77.7552 11.2613C77.8414 11.274 77.9584 11.3167 77.9823 11.3442C78.9059 12.4226 79.7624 13.5448 80.548 14.7058C79.8704 14.1221 78.9868 13.7286 77.7829 13.4723C76.7279 13.2496 75.6492 13.2018 74.6063 13.1553L74.257 13.1396C73.9299 13.1248 73.6028 13.1064 73.2659 13.0876L72.701 13.0567C72.6649 13.0567 72.6294 13.0643 72.5972 13.0788C72.5651 13.0933 72.5372 13.1142 72.5159 13.14C72.4929 13.1675 72.478 13.1997 72.4726 13.2337C72.4673 13.2676 72.4717 13.3021 72.4854 13.3342C72.5081 13.3887 72.5494 13.485 72.5706 13.5171C73.6706 15.1467 74.9623 16.2738 76.519 16.9632C78.0408 17.6366 79.4158 17.8146 80.8027 17.5209C80.9794 17.485 81.1602 17.4674 81.3414 17.4684C81.9314 17.4684 82.3427 17.6279 82.4292 17.7755C83.1974 19.1808 83.8756 20.6234 84.4605 22.0963C83.8445 21.3441 82.9831 20.7331 81.8924 20.2761C80.809 19.8232 79.6808 19.4091 78.5708 19.0016C78.0938 18.8269 77.6149 18.6516 77.1381 18.4723C77.1028 18.4586 77.0643 18.4529 77.0259 18.4557C76.9876 18.4585 76.9506 18.4697 76.9184 18.4883C76.8862 18.507 76.8597 18.5325 76.8414 18.5624C76.8231 18.5924 76.8136 18.626 76.8136 18.6601C76.8136 18.792 78.3966 22.6833 80.6955 24.2167C81.6334 24.8422 82.7885 25.4857 84.2452 25.516C84.6811 25.5238 85.1319 25.5784 85.4724 25.9212C85.5244 25.9757 85.5934 26.0182 85.6686 26.0408C85.7849 26.0747 85.8169 26.1377 85.8742 26.3526C86.3502 28.1302 86.6933 29.9337 86.9011 31.7514C86.8354 31.5604 86.7608 31.3719 86.6776 31.1864C86.1631 30.0307 85.2971 29.0194 83.9524 28.0037C83.2593 27.478 82.5335 26.969 81.8316 26.4765L81.7981 26.4532C81.4784 26.2288 81.1595 26.0053 80.8414 25.779C80.7726 25.7296 80.7046 25.6792 80.6375 25.6278L80.4391 25.4773C80.4041 25.4517 80.3616 25.4356 80.3166 25.4309C80.2715 25.4261 80.2259 25.4329 80.1851 25.4504C80.1443 25.4686 80.1106 25.4971 80.088 25.5322C80.0654 25.5674 80.0551 25.6076 80.0583 25.6479C80.0681 25.7721 80.076 25.8894 80.0834 26.0021L80.0872 26.0548C80.103 26.2868 80.1178 26.5057 80.1443 26.7218C80.393 28.8261 81.0995 30.583 82.3041 32.0927C83.0497 33.026 84.1193 34.1666 85.7873 34.7061C86.1932 34.838 86.4876 35.0379 86.803 35.3965C87.1005 35.7324 87.1559 36.0392 87.1492 36.4254C87.1218 38.0284 86.9923 39.6288 86.7612 41.219C86.7075 40.7817 86.5938 40.3314 86.4193 39.8637C86.0581 38.8951 85.4951 37.9534 84.6979 36.9849C84.0098 36.1462 83.2937 35.3046 82.6013 34.4902L82.5552 34.4358C82.2807 34.1133 82.0063 33.7904 81.7392 33.4745C81.689 33.4096 81.6167 33.3863 81.5749 33.3734C81.5451 33.3606 81.5125 33.3536 81.4794 33.3529C81.4462 33.3522 81.4133 33.3577 81.3828 33.3692C81.3523 33.3806 81.3249 33.3977 81.3024 33.4193C81.28 33.4409 81.263 33.4665 81.2526 33.4944L81.2445 33.5164C81.233 33.546 81.2239 33.5722 81.2191 33.5984C80.7416 36.1204 81.0346 38.38 82.1145 40.507C82.6419 41.547 83.3493 42.7244 84.5966 43.5716C85.172 43.9656 85.6106 44.495 85.8625 45.0993C85.9148 45.2281 85.9129 45.2839 85.9069 45.3055C85.379 47.2421 84.6895 49.11 83.8512 50.8779C84.067 49.9462 84.0522 48.9675 83.8058 47.9535C83.4561 46.5163 82.8549 45.1236 82.3186 43.9309L82.1579 43.5737C81.9021 43.0052 81.6468 42.4365 81.392 41.8676C81.3588 41.7929 81.2788 41.742 81.1721 41.7373C81.1302 41.7376 81.0892 41.7482 81.0536 41.7678C81.018 41.7875 80.9893 41.8155 80.9706 41.8487L80.8863 41.9892C80.8493 42.0507 80.8147 42.108 80.7851 42.1672C79.7064 44.323 79.342 46.5328 79.7028 48.7355C79.9606 50.3106 80.3976 51.4383 81.1196 52.3925C81.4932 52.8856 81.8483 53.435 81.9127 54.1107C81.928 54.2706 81.9209 54.3807 81.8404 54.5061C80.9421 55.9021 79.9225 57.234 78.7907 58.4898L78.8034 58.4695C79.6078 57.1675 79.6321 55.7597 79.55 54.5541C79.4791 53.5207 79.3454 52.4887 79.2167 51.491L79.2093 51.4333C79.1567 51.0337 79.1066 50.6338 79.0589 50.2338C79.031 50.0056 79.0014 49.7775 78.97 49.5497L78.9287 49.238C78.9245 49.2044 78.9108 49.1723 78.889 49.1447C78.8672 49.117 78.8379 49.0945 78.8039 49.0794C78.6769 49.0206 78.4713 49.1113 78.2492 49.3439C76.7233 50.9424 75.7764 52.7488 75.4345 54.7132C75.08 56.7499 75.2722 58.4928 76.0228 60.0416C76.0429 60.0828 76.0424 60.167 76.0422 60.1951L76.0018 61.0863C75.9958 61.1504 75.9576 61.2227 75.9261 61.2495C74.4131 62.5418 72.7345 63.6728 70.9246 64.6195C71.7767 63.9373 72.3894 63.0472 72.7865 61.9193C73.2265 60.669 73.4524 59.3679 73.6713 58.1062L73.6904 57.9939C73.768 57.5507 73.8489 57.1083 73.9315 56.6562L74.0249 56.145C74.0316 56.109 74.0272 56.072 74.0123 56.038C73.9973 56.004 73.9723 55.9741 73.9399 55.9515C73.9073 55.9291 73.8687 55.9147 73.8278 55.9097C73.7869 55.9047 73.7453 55.9094 73.7071 55.9232L73.6257 55.953C73.5388 55.9845 73.4631 56.0127 73.3917 56.045C69.9885 57.5505 67.7482 61.0617 68.0648 64.3937C68.1144 64.9156 68.0605 65.4058 67.8996 65.8913C67.8845 65.9355 67.8363 65.9835 67.8167 65.9916C66.2003 66.5953 64.6634 67.0358 63.117 67.3382C63.0783 67.3459 63.0424 67.3624 63.0129 67.3859C62.9835 67.4095 62.9613 67.4394 62.9487 67.4727C62.9358 67.5062 62.933 67.5421 62.9405 67.5769C62.948 67.6117 62.9655 67.6441 62.9914 67.6711C63.1581 67.8454 63.3038 68.0346 63.4262 68.2357C63.4756 68.3169 63.5933 68.3586 63.6814 68.3383C64.9223 68.0889 66.1414 67.7612 67.3294 67.3577C67.4232 67.3243 67.4949 67.3084 67.562 67.3181C67.8203 67.3486 68.0932 67.3955 68.3962 67.4621C68.4587 67.4757 68.5105 67.5013 68.5115 67.4989C69.1733 68.6675 70.3108 69.4119 71.99 69.7741C72.3553 69.8518 72.732 69.9091 73.1097 69.9442C73.5051 69.9812 73.9461 70 74.42 70C75.0766 70 75.5448 69.9641 75.5506 69.9636C77.006 69.8194 78.249 69.5293 79.3499 69.0765C79.8016 68.891 80.3164 68.6413 80.712 68.1953C80.7485 68.1541 80.7659 68.1021 80.7605 68.05C80.7551 67.9979 80.7274 67.9495 80.6831 67.9149C79.5648 67.0409 78.4262 66.4058 77.2016 65.9736C75.3873 65.3349 73.7346 65.162 72.1146 65.4379C71.8759 65.4793 71.6396 65.5308 71.4064 65.5923C72.9218 64.79 74.3728 63.847 75.743 62.7728C75.7726 62.7503 75.808 62.7348 75.8461 62.7277C76.0703 62.6947 76.3681 62.6541 76.6727 62.6347C76.7009 62.6347 76.7367 62.6467 76.7408 62.648C77.5664 63.4664 78.6301 63.8642 79.9927 63.8642C80.0621 63.8642 80.1318 63.8629 80.2013 63.8608C81.6828 63.8185 83.1722 63.4579 84.6288 62.7886C85.6875 62.2995 86.791 61.73 87.6859 60.8807C87.8843 60.6919 88.0615 60.4783 88.2178 60.2899L88.2331 60.2715C88.3024 60.1884 88.3723 60.1046 88.4442 60.0219C88.4637 59.9994 88.4778 59.9736 88.4856 59.9461C88.4934 59.9185 88.4948 59.8899 88.4896 59.8619C88.4835 59.8328 88.4706 59.8051 88.4517 59.7808C88.4328 59.7564 88.4082 59.7358 88.3797 59.7204C88.364 59.7128 87.9851 59.5328 87.6391 59.4142C85.3227 58.6214 82.984 58.5402 80.7531 59.1769C80.0227 59.3848 79.3354 59.6969 78.6661 60.1283C79.9038 58.854 81.0499 57.457 82.0904 55.9539C82.1016 55.938 82.1312 55.8951 82.1407 55.8873C82.2317 55.8359 82.3248 55.7872 82.4177 55.7392C82.5841 55.6527 82.7565 55.5633 82.9184 55.4567C83.055 55.3664 83.0934 55.3641 83.2314 55.4427C83.4267 55.555 83.6538 55.6134 83.8517 55.6593C85.0097 55.9219 86.177 55.791 87.4682 55.2541C88.6476 54.7643 89.5544 53.9902 90.359 53.2267C91.5294 52.1131 92.2942 51.1084 92.766 50.0646C92.865 49.8455 92.9357 49.619 93.0092 49.3822C93.0396 49.2828 93.0706 49.1834 93.1036 49.0857C93.121 49.0353 93.1158 48.9809 93.089 48.9338C93.0621 48.8867 93.0158 48.8507 92.9596 48.8332L92.8626 48.8267C92.3854 48.8267 88.1278 48.8886 85.6376 51.0287C85.0989 51.4906 84.6068 51.9933 84.1669 52.531C85.152 50.6832 85.9874 48.7357 86.6607 46.7143L86.6705 46.6847C86.6786 46.6599 86.6908 46.6225 86.6989 46.6123L87.3502 45.8202C87.3746 45.7885 87.3774 45.7885 87.4156 45.7885C87.4326 45.7885 87.4512 45.7895 87.4725 45.7906L87.6116 45.798C88.0963 45.8246 88.3816 45.8208 88.6163 45.7882C89.5437 45.6586 90.3808 45.245 91.1751 44.5234C93.0329 42.8359 94.3117 40.7305 95.0843 38.0875C95.1671 37.8044 95.1903 37.5184 95.2151 37.2152C95.2261 37.0777 95.2383 36.9361 95.256 36.7897C95.2599 36.7558 95.2543 36.7216 95.2398 36.69C95.2253 36.6584 95.2022 36.6305 95.1726 36.6087ZM32.1399 67.3365C30.5948 67.0343 29.0582 66.5938 27.4413 65.9901C27.422 65.982 27.374 65.934 27.359 65.8909C27.1978 65.4043 27.1438 64.9141 27.1935 64.3922C27.5101 61.0601 25.2698 57.549 21.8673 56.0437C21.7905 56.0102 21.7122 55.9794 21.6326 55.9515L21.5519 55.9219C21.514 55.908 21.4726 55.9032 21.4319 55.908C21.3912 55.9127 21.3526 55.9269 21.3201 55.949C21.2872 55.9716 21.2618 56.0016 21.2465 56.0358C21.2313 56.0701 21.2269 56.1074 21.2336 56.1438L21.3267 56.6547C21.4094 57.1068 21.4903 57.5492 21.5679 57.992L21.5875 58.1079C21.8059 59.3664 22.0318 60.6678 22.4718 61.918C22.8689 63.046 23.4815 63.9361 24.3337 64.6181C22.5238 63.6716 20.8453 62.5407 19.3324 61.2485C19.3004 61.2212 19.2624 61.1489 19.257 61.0892L19.2161 60.1975C19.2159 60.1657 19.2154 60.0816 19.2357 60.0399C19.9861 58.4915 20.1783 56.7486 19.8238 54.7119C19.4819 52.7475 18.535 50.9412 17.0091 49.3427C16.8305 49.1555 16.6729 49.0608 16.5406 49.0608C16.5115 49.0602 16.4826 49.0658 16.4563 49.077C16.4218 49.0922 16.3921 49.1148 16.3699 49.1427C16.3478 49.1706 16.3338 49.203 16.3293 49.2369L16.2885 49.548C16.2569 49.776 16.2272 50.0043 16.1994 50.2327C16.1517 50.6327 16.1015 51.0325 16.049 51.432L16.0416 51.4897C15.9127 52.4876 15.779 53.5196 15.7083 54.5529C15.6262 55.7583 15.6505 57.166 16.4549 58.4683L16.4673 58.4884C15.3357 57.2327 14.3162 55.9009 13.4179 54.5051C13.3374 54.3795 13.3305 54.2693 13.3455 54.1094C13.4103 53.4333 13.765 52.8839 14.1387 52.3912C14.8605 51.4371 15.2974 50.3093 15.5555 48.7342C15.9163 46.5316 15.5519 44.3219 14.4732 42.1662C14.4436 42.1067 14.409 42.0494 14.372 41.9879L14.2877 41.847C14.2668 41.8124 14.2353 41.7837 14.1968 41.7642C14.1584 41.7447 14.1145 41.7351 14.0702 41.7367C14.0258 41.7387 13.9831 41.752 13.947 41.7749C13.9109 41.7978 13.883 41.8294 13.8665 41.8659C13.6117 42.4349 13.3563 43.0038 13.1003 43.5724L12.9397 43.9296C12.4034 45.1225 11.802 46.5153 11.4524 47.9522C11.206 48.9662 11.191 49.9449 11.4071 50.8767C10.5686 49.109 9.87926 47.2411 9.35137 45.3042C9.3454 45.2826 9.34349 45.2268 9.39578 45.098C9.64756 44.4935 10.0863 43.9641 10.6619 43.5701C11.9089 42.723 12.6164 41.5455 13.1438 40.5055C14.2237 38.3785 14.5167 36.1189 14.0391 33.5971C14.0332 33.5695 14.0249 33.5424 14.0143 33.5159L14.0057 33.4931C13.9953 33.4651 13.9783 33.4393 13.9558 33.4176C13.9333 33.3958 13.9058 33.3786 13.8751 33.3671C13.8455 33.3566 13.8139 33.3515 13.7821 33.3519C13.7503 33.3523 13.7188 33.3582 13.6896 33.3694C13.6418 33.3848 13.5695 33.4083 13.5225 33.4694C13.25 33.7915 12.977 34.1131 12.7033 34.4344L12.6572 34.4887C11.9648 35.3031 11.2488 36.1447 10.5607 36.9832C9.76347 37.952 9.20047 38.8936 8.83923 39.8622C8.66494 40.33 8.55105 40.7802 8.49733 41.2175C8.26624 39.6274 8.13671 38.0269 8.10935 36.4239C8.10267 36.0377 8.15806 35.7309 8.45579 35.3949C8.77095 35.0366 9.06534 34.8366 9.47123 34.7046C11.139 34.1649 12.2088 33.0245 12.9545 32.0913C14.159 30.5816 14.8655 28.8249 15.1143 26.7207C15.1408 26.5042 15.1558 26.2851 15.1713 26.0533L15.1752 26.0007C15.1826 25.888 15.1904 25.7706 15.2005 25.6462C15.2035 25.6059 15.1931 25.5657 15.1705 25.5306C15.1479 25.4956 15.1142 25.4671 15.0734 25.4489C15.0326 25.4314 14.9869 25.4246 14.9418 25.4294C14.8967 25.4343 14.8541 25.4505 14.8192 25.4762L14.6212 25.6264C14.5467 25.6826 14.483 25.7308 14.4169 25.7778C14.0991 26.0038 13.7801 26.2276 13.4604 26.4519L13.427 26.4752C12.7253 26.9675 11.9994 27.4765 11.3063 28.0022C9.9614 29.0182 9.09542 30.0294 8.5809 31.1851C8.49778 31.3708 8.42323 31.5595 8.35742 31.7506C8.56524 29.9327 8.90829 28.1289 9.38432 26.3511C9.44162 26.1364 9.47361 26.0734 9.59132 26.0392C9.66534 26.017 9.73434 25.9742 9.78472 25.9214C10.1269 25.5769 10.5774 25.5223 11.0138 25.5145C12.4703 25.4843 13.6254 24.8407 14.563 24.2152C16.862 22.6816 18.4449 18.7906 18.4449 18.6586C18.4449 18.6246 18.4354 18.5911 18.4172 18.5612C18.399 18.5313 18.3727 18.5058 18.3406 18.4871C18.3085 18.4688 18.272 18.4577 18.234 18.4547C18.196 18.4517 18.1578 18.457 18.1226 18.47C17.6437 18.6499 17.1647 18.8252 16.6688 19.0069C15.5777 19.4076 14.4496 19.8217 13.3661 20.2745C12.2757 20.7314 11.414 21.3426 10.798 22.0946C11.3824 20.6225 12.0601 19.1808 12.8279 17.7763C12.9155 17.6262 13.3272 17.4667 13.9174 17.4667C14.1093 17.4667 14.2953 17.4849 14.456 17.5192C15.8427 17.8136 17.2177 17.6351 18.7396 16.9615C20.2965 16.2721 21.5882 15.145 22.6884 13.5148C22.7094 13.4833 22.7507 13.387 22.7729 13.3331C22.7867 13.3012 22.7912 13.2667 22.7861 13.2328C22.7809 13.1989 22.7662 13.1667 22.7433 13.1392C22.7003 13.0868 22.6316 13.0555 22.5439 13.0555H22.542L21.9924 13.0861C21.6555 13.1049 21.3284 13.1233 21.0013 13.1381L20.652 13.1538C19.6091 13.2003 18.5304 13.2481 17.4751 13.4708C16.2715 13.7271 15.3879 14.1206 14.7103 14.7043C15.4959 13.5435 16.3523 12.4215 17.2757 11.3432C17.3001 11.3153 17.4168 11.2725 17.5126 11.2584C17.5603 11.2484 17.7342 11.2161 17.9653 11.2161C18.2718 11.2161 18.5402 11.2713 18.7677 11.3821C20.2134 12.0083 21.837 12.0548 23.5997 11.5185C25.0456 11.081 26.2702 10.2683 27.3437 9.03476C27.3785 8.995 27.4101 8.95165 27.4387 8.90597C27.4548 8.88126 27.4637 8.85342 27.4648 8.82492C27.4659 8.79642 27.4591 8.76812 27.4449 8.7425C27.3618 8.58813 27.0023 8.51559 26.8509 8.49149C26.4794 8.43397 26.0584 8.36841 25.6411 8.31829C25.4499 8.29461 25.2584 8.26987 25.0664 8.2447L25.0418 8.24132C24.3914 8.15631 23.7191 8.06833 23.0417 8.03809C21.804 7.98205 20.705 8.20579 19.8056 8.70106C20.399 8.14081 21.0162 7.60067 21.6558 7.08182C21.8542 6.92152 22.0786 6.75996 22.3844 6.55716C22.4081 6.54109 22.4682 6.52227 22.542 6.51846C24.7097 6.44339 26.5135 5.59581 28.0559 3.92773C28.8961 3.01967 29.5403 1.87434 30.0256 0.426187L30.0424 0.376492C30.0942 0.224232 30.1228 0.140489 30.0037 0.0423668C29.9118 -0.0333399 29.7499 -0.0109234 29.3292 0.136684C28.9472 0.266738 28.5628 0.392987 28.1681 0.522619C27.3752 0.78294 26.5551 1.05214 25.7636 1.35624C24.4409 1.86546 23.3846 2.63733 22.6246 3.65007C22.0459 4.42067 21.8172 5.19486 21.9248 6.01283C21.9225 6.0243 21.9187 6.0355 21.9136 6.04625C20.5329 7.10212 19.213 8.2908 17.8578 9.70554C18.7615 8.48176 19.3505 7.07273 19.6461 5.43932C19.9441 3.7926 19.963 2.32689 19.7041 0.958672C19.6877 0.873026 19.6655 0.78738 19.6371 0.680164L19.5948 0.515005C19.5853 0.480004 19.5657 0.44778 19.538 0.421468C19.5102 0.395157 19.4753 0.375655 19.4365 0.364861C19.3973 0.354703 19.3559 0.353729 19.3161 0.362032C19.2764 0.370336 19.2398 0.387633 19.2099 0.41223C19.1154 0.491109 19.0227 0.565547 18.9322 0.63787L18.8685 0.688835C18.6369 0.873661 18.4182 1.04812 18.2203 1.24543C16.2971 3.16707 15.1754 5.19677 14.7912 7.45063C14.6162 8.46928 14.6888 9.33653 15.0133 10.1012C15.1207 10.3545 15.2883 10.5808 15.4552 10.8054C15.5316 10.908 15.608 11.011 15.678 11.1167C15.7295 11.1926 15.7338 11.2123 15.7336 11.2087C15.6954 11.5562 15.649 11.903 15.5946 12.2489C15.592 12.254 15.5834 12.2658 15.556 12.298L15.5338 12.3252C14.4756 13.6291 13.5088 14.9893 12.6386 16.398C13.0533 15.1164 13.2545 13.7881 13.236 12.4551C13.2126 10.5935 12.7286 8.93325 11.7559 7.37873C11.7175 7.31825 11.6477 7.27891 11.5501 7.27299C11.5142 7.27338 11.4788 7.2812 11.4469 7.29581C11.415 7.31042 11.3874 7.33142 11.3662 7.35716C11.3371 7.39311 11.3075 7.42694 11.2793 7.45909C11.2165 7.53099 11.1578 7.59908 11.1053 7.67182C10.3308 8.74758 9.91532 9.93372 9.63955 10.8471C9.13553 12.5221 8.90394 13.9208 8.91062 15.249C8.91444 16.3781 9.14676 17.246 9.64194 17.9804C9.79594 18.209 9.98981 18.4091 10.1846 18.6104C10.288 18.7172 10.3943 18.8269 10.4905 18.9394C10.5578 19.0177 10.5903 19.0974 10.5922 19.1418C10.6048 19.4095 10.5982 19.6817 10.5917 19.9448L10.5872 20.1266C10.5862 20.159 10.5791 20.191 10.5662 20.2214C9.93664 21.5756 9.39106 22.9593 8.93187 24.3662C8.99895 23.8976 9.03801 23.4261 9.04886 22.9538C9.10521 20.354 8.20485 18.0322 6.37215 16.0522L5.99014 15.6401C5.96859 15.6163 5.94128 15.5972 5.91025 15.584C5.87921 15.5709 5.84523 15.5641 5.81083 15.5641L5.77263 15.5671C5.73251 15.573 5.69486 15.5882 5.66347 15.6111C5.63208 15.634 5.60805 15.6638 5.5938 15.6976C5.55894 15.7798 5.5248 15.8575 5.49161 15.9325C5.42842 16.0717 5.3699 16.2126 5.31612 16.3548C4.92289 17.4458 4.72997 18.6377 4.69082 20.2186L4.6901 20.2495C4.66073 21.3997 4.62038 22.9754 5.15377 24.4832C5.6788 25.9675 6.6047 26.7176 6.78425 26.8523L6.80335 26.8675C7.29208 27.2538 7.61035 27.6072 7.67625 27.8367C7.70275 27.9293 7.72973 28.0221 7.76124 28.1139C7.90068 28.5223 7.81353 28.9114 7.71946 29.3316C7.67266 29.5437 7.62396 29.7627 7.60701 29.9875C7.53968 30.8871 7.45707 31.802 7.37708 32.6865L7.36992 32.7684L7.30856 33.4453C7.10466 31.4211 6.3478 29.5811 5.04561 27.9538C4.24816 26.9582 3.29743 26.1064 2.2192 25.4214C2.17264 25.3918 2.12369 25.3654 2.05827 25.3309C2.02016 25.3114 1.98243 25.2912 1.9451 25.2705C1.91155 25.2529 1.87366 25.2429 1.83473 25.2414C1.79581 25.2398 1.75705 25.2468 1.72186 25.2616C1.68658 25.277 1.6563 25.3001 1.63387 25.3287C1.61145 25.3574 1.5976 25.3906 1.59365 25.4253C1.57879 25.5522 1.56231 25.679 1.54423 25.8057C1.50818 26.069 1.47403 26.3177 1.4726 26.5731C1.4566 29.2212 2.08907 31.7026 3.35306 33.9475C3.70523 34.5739 4.17056 35.1157 4.73666 35.5585C5.29798 35.9952 5.90371 36.2528 6.58727 36.3454C6.60729 36.3515 6.62626 36.3601 6.64362 36.3708C6.68063 36.4366 6.71907 36.5025 6.75751 36.5687C6.89407 36.8024 7.03518 37.0441 7.10538 37.2865C7.16387 37.4914 7.16387 37.7153 7.16387 37.9526C7.16387 38.0395 7.16387 38.1271 7.16698 38.2129C7.23263 40.2642 7.31883 40.9785 7.68938 42.8114C7.46327 42.2664 7.17939 41.72 6.8129 41.1942C5.32878 39.0666 3.44331 37.6225 1.04881 36.7798C0.896478 36.7254 0.743673 36.6863 0.566515 36.6406L0.531179 36.6313C0.459313 36.6127 0.383149 36.5928 0.301733 36.5708C0.264987 36.5605 0.225907 36.5584 0.188038 36.5649C0.15017 36.5713 0.114711 36.586 0.0848783 36.6076C0.0550457 36.6293 0.0317833 36.6572 0.0172015 36.6888C0.00261961 36.7204 -0.00282027 36.7547 0.00137529 36.7887C0.0190434 36.9342 0.03122 37.0756 0.0424416 37.2137C0.0670337 37.5165 0.0901932 37.8025 0.173042 38.0854C0.945662 40.7286 2.22445 42.8338 4.08222 44.5215C4.87657 45.2431 5.71366 45.6567 6.64123 45.7863C6.87521 45.8187 7.16124 45.8227 7.64545 45.7961L7.78488 45.7887C7.80613 45.7876 7.82475 45.7865 7.8417 45.7865C7.87991 45.7865 7.88301 45.7865 7.90951 45.8212L8.55822 46.6102C8.56657 46.6206 8.57875 46.658 8.58711 46.6838L8.59666 46.7122C9.26995 48.7338 10.1054 50.681 11.0905 52.5291C10.6506 51.9914 10.1584 51.4887 9.61973 51.0268C7.12949 48.8867 2.87196 48.8248 2.39468 48.8248L2.33523 48.8252L2.29775 48.8313C2.24165 48.8487 2.19531 48.8846 2.16843 48.9315C2.14155 48.9785 2.13621 49.0328 2.15354 49.0832C2.18673 49.1815 2.21776 49.2809 2.25334 49.3976C2.32138 49.6169 2.39206 49.8434 2.49114 50.0625C2.96293 51.1067 3.72767 52.1112 4.8983 53.2248C5.70267 53.9883 6.60948 54.7624 7.7887 55.252C9.08014 55.7891 10.2462 55.9202 11.4059 55.6572C11.6031 55.6113 11.8299 55.5531 12.025 55.4411C12.1639 55.3622 12.2019 55.3647 12.3385 55.4548C12.5003 55.5614 12.6725 55.6508 12.8396 55.7375C12.932 55.7855 13.0251 55.834 13.112 55.8826C13.1259 55.893 13.1555 55.9359 13.1665 55.9518C14.207 57.4549 15.3533 58.8519 16.591 60.1262C15.9215 59.6948 15.2341 59.3827 14.504 59.1748C12.2728 58.538 9.93418 58.619 7.61799 59.4123C7.27227 59.5309 6.89336 59.7107 6.86805 59.7233C6.84157 59.7389 6.81898 59.7591 6.80169 59.7827C6.78439 59.8063 6.77277 59.8328 6.76753 59.8605C6.76229 59.8883 6.76355 59.9167 6.77123 59.944C6.77891 59.9713 6.79285 59.9969 6.81218 60.0192C6.88452 60.1025 6.95448 60.1863 7.02372 60.2694L7.039 60.2875C7.19539 60.4762 7.37255 60.6896 7.57119 60.8786C8.46582 61.7281 9.56912 62.2976 10.6282 62.7865C12.0847 63.4558 13.574 63.8164 15.0553 63.8587C15.125 63.8608 15.1947 63.862 15.2642 63.862C16.6268 63.862 17.6905 63.4643 18.5104 62.6507C18.5304 62.6406 18.5526 62.6342 18.5755 62.6321C18.8888 62.652 19.1865 62.6924 19.409 62.7252C19.4479 62.7323 19.4842 62.748 19.5143 62.7709C20.8841 63.8449 22.3348 64.7877 23.8502 65.59C23.6169 65.5286 23.3805 65.4769 23.1418 65.4352C21.5223 65.1594 19.8696 65.3324 18.0548 65.9711C16.8305 66.4033 15.6918 67.0383 14.5737 67.9124C14.5293 67.9469 14.5016 67.9953 14.4962 68.0474C14.4907 68.0996 14.5081 68.1516 14.5446 68.1928C14.9402 68.6388 15.455 68.8885 15.9065 69.0738C17.0076 69.5269 18.2506 69.8171 19.7077 69.9613C19.712 69.9615 20.1802 69.9975 20.8368 69.9975C21.3107 69.9975 21.7517 69.9786 22.1469 69.9416C22.524 69.9066 22.8981 69.8497 23.2669 69.7714C24.9458 69.4094 26.0835 68.665 26.7353 67.5093C26.747 67.4994 26.7972 67.4736 26.8607 67.4598C27.1358 67.3981 27.4145 67.3499 27.6956 67.3156C27.7567 67.3069 27.8329 67.3215 27.9289 67.3558C29.1158 67.7588 30.3337 68.0861 31.5733 68.3353C31.623 68.3459 31.6754 68.3416 31.722 68.323C31.7687 68.3044 31.8071 68.2725 31.8311 68.2325C31.9536 68.0316 32.0993 67.8424 32.2659 67.6681C32.2916 67.6413 32.3091 67.609 32.3165 67.5744C32.324 67.5398 32.3213 67.5042 32.3086 67.4708C32.2959 67.4374 32.2737 67.4075 32.2441 67.384C32.2146 67.3605 32.1787 67.3441 32.1399 67.3365Z" fill="#104099"/>
<g id="Group">
<path id="Vector_2" d="M65.9982 27.2824C66.1075 21.7596 61.2282 16.8925 55.7131 17.0018C46.6166 16.9825 41.9887 28.1567 48.4424 34.5538C54.8452 41.0145 66.0175 36.3795 65.9982 27.2824ZM52.1002 26.4596C51.2568 26.4473 51.2529 25.186 52.1002 25.1738H56.1631C55.8931 24.351 55.1217 23.746 54.2088 23.746H52.1002C51.7402 23.746 51.4574 23.4568 51.4574 23.1032C51.4574 22.7496 51.7402 22.4603 52.1002 22.4603H59.326C60.17 22.4738 60.1732 23.7319 59.326 23.746H56.8252C57.1531 24.1575 57.391 24.6396 57.4938 25.1732H59.326C60.1694 25.186 60.1732 26.4461 59.326 26.4589H57.4938C57.184 28.1612 55.5588 29.3261 53.8102 29.1718L57.3395 32.2646C57.974 32.8104 57.1293 33.7882 56.4974 33.2289L51.6759 29.0117C51.2227 28.6504 51.5261 27.8674 52.1002 27.8867H54.2088C55.1217 27.8867 55.8931 27.2824 56.1631 26.4596H52.1002ZM35.9464 35.6402H30.6429C30.2893 35.6402 30 35.9295 30 36.2831V49.733C30 50.0866 30.2893 50.3759 30.6429 50.3759H35.9464C36.3065 50.3759 36.5893 50.0866 36.5893 49.733V36.2831C36.5893 35.9295 36.3065 35.6402 35.9464 35.6402ZM33.2979 40.4231C32.4493 40.4102 32.4557 39.1502 33.2979 39.1374C34.14 39.1567 34.14 40.4102 33.2979 40.4231ZM62.7627 41.4729L57.299 43.0608C57.11 44.9508 55.3923 46.4911 53.4933 46.4615H47.1624C46.3203 46.4454 46.3164 45.1925 47.1624 45.1758H53.4939C57.0271 44.9572 56.7892 40.0907 53.1982 40.0779H48.5246C48.1396 40.0779 47.7603 39.9686 47.4388 39.7629C45.8677 38.778 43.8986 37.2416 41.9302 37.3714H37.875V48.6601C38.055 48.6793 38.2286 48.7372 38.3893 48.8336L43.3522 51.7265C44.8031 52.5757 46.4289 53 48.0553 53C49.4182 53 50.7811 52.7043 52.0539 52.1L64.5485 46.1857C67.3193 44.819 65.7378 40.6616 62.7614 41.4729H62.7627Z" fill="#104099"/>
</g>
</g>
</svg>
