<svg width="86" height="70" viewBox="0 0 86 70" fill="none" xmlns="http://www.w3.org/2000/svg">
<g id="iso">
<path id="Vector" d="M38.6287 0.0999107C28.4437 1.1748 19.5803 6.21443 13.642 14.2849C12.3556 16.0294 12.3909 15.9589 13.0605 15.9589C13.5891 15.9589 13.7477 15.8003 14.7345 14.4963C16.197 12.5228 17.8182 10.8135 19.5979 9.28049L21.0957 8.01178L22.6816 9.0338C23.5626 9.59767 24.4085 10.1263 24.5671 10.232C24.8137 10.3906 24.6728 10.6021 23.6684 11.8179C23.0164 12.5933 22.0296 13.8444 21.4481 14.5844L20.4085 15.9589H21.0252C21.5715 15.9589 21.7477 15.8179 23.2102 13.9677C24.0913 12.8928 25.0252 11.7298 25.3071 11.4126L25.8005 10.8311L27.1221 11.4303C27.8446 11.7651 29.1133 12.2585 29.9415 12.5228C30.7697 12.7871 31.5098 13.069 31.5802 13.1395C31.6683 13.21 31.4921 13.8444 31.1926 14.5492C30.893 15.254 30.6463 15.8532 30.6463 15.8884C30.6463 15.9236 30.8754 15.9589 31.1397 15.9589C31.5979 15.9589 31.7036 15.8355 32.1441 14.7959C32.4084 14.1615 32.7256 13.5977 32.849 13.5624C32.9547 13.5096 33.9591 13.6329 35.0692 13.8444C36.1793 14.0382 37.9767 14.2496 39.0692 14.3201L41.0428 14.4258V15.2012C41.0428 15.9236 41.0604 15.9589 41.5714 15.9589C42.0824 15.9589 42.1 15.9236 42.1 15.2012V14.4258L44.3555 14.3201C46.2938 14.232 49.078 13.862 50.0824 13.5624C50.3291 13.4919 50.5053 13.721 50.9458 14.7078C51.4392 15.8355 51.5449 15.9589 51.9855 15.9589C52.2674 15.9589 52.4965 15.9236 52.4965 15.8532C52.4965 15.8003 52.2498 15.2012 51.9678 14.514C51.6683 13.8267 51.4568 13.2452 51.4744 13.2276C51.5097 13.21 52.0383 13.069 52.6727 12.8928C53.2894 12.7342 54.6639 12.2408 55.6859 11.8356L57.5713 11.0778L57.9061 11.4831C61.6242 16.0999 61.4832 15.9589 62.1176 15.9589H62.7343L61.6418 14.5316C61.0427 13.7386 60.0912 12.5404 59.5097 11.8532L58.4876 10.6197L59.8445 9.80913C60.6022 9.35098 61.5361 8.76948 61.9061 8.52279L62.5933 8.04702L63.1396 8.41706C64.144 9.10428 68.0735 13.21 69.0603 14.5844C69.9237 15.7827 70.0999 15.9413 70.6109 15.9413C70.9105 15.9589 71.1748 15.906 71.1748 15.8355C71.1748 15.7827 70.6109 14.9721 69.9061 14.0382C64.3907 6.6902 56.1264 1.73867 47.122 0.364227C44.937 0.0294266 40.5494 -0.111542 38.6287 0.0999107ZM46.1529 1.24528C48.3908 1.54484 49.8533 1.8444 49.8533 2.02061C49.8533 2.19682 48.1088 3.20122 47.1044 3.60651C44.7961 4.50518 41.3599 4.75188 38.7873 4.22324C37.0956 3.88844 35.1397 3.07787 34.3468 2.40827L33.73 1.89726L34.7873 1.68581C38.1177 0.980965 42.8577 0.787133 46.1529 1.24528ZM33.6419 3.1836C33.6419 3.21884 32.8666 3.78272 31.9327 4.4347C29.6243 6.02059 28.1441 7.18359 26.7344 8.52279L25.5538 9.65054L24.1794 8.83997C23.4217 8.38182 22.6111 7.87081 22.3644 7.67698L21.9415 7.3598L23.3336 6.4435C25.2367 5.22764 28.6023 3.57126 30.7168 2.8488L32.4613 2.23206L33.0428 2.69021C33.3776 2.9369 33.6419 3.16598 33.6419 3.1836ZM53.1837 2.90166C56.0735 3.94131 61.1132 6.58447 61.5537 7.30693C61.677 7.50076 60.6903 8.18799 58.7872 9.26287L57.7652 9.82675L56.4965 8.61089C55.0515 7.21883 53.589 6.05584 51.4392 4.59329C50.611 4.02941 49.9062 3.53602 49.8709 3.50078C49.8181 3.46554 51.0692 2.24968 51.2101 2.21444C51.2277 2.21444 52.1264 2.53162 53.1837 2.90166ZM35.9326 4.34659C36.4613 4.57567 36.937 4.7695 36.9547 4.78712C36.9899 4.82236 36.4613 5.61531 35.7741 6.56685C35.0868 7.51839 34.012 9.17477 33.36 10.2497L32.197 12.2232L30.9283 11.8179C29.4657 11.3598 28.6023 11.025 27.404 10.514L26.5406 10.1263L27.3159 9.33336C28.7256 7.87081 34.4172 3.72985 34.7873 3.87082C34.893 3.92369 35.404 4.13514 35.9326 4.34659ZM50.8929 5.42148C53.2542 7.07786 55.1044 8.55803 56.0912 9.59767L56.7784 10.3025L55.915 10.6902C54.752 11.1836 51.5449 12.2585 51.2101 12.2585C51.0515 12.2585 50.6463 11.7298 50.2762 11.0602C49.6595 9.9501 47.8445 7.18359 46.752 5.68579C46.4877 5.33337 46.3115 5.01619 46.3467 4.98095C46.4172 4.92809 48.6374 4.02941 48.7784 3.99417C48.8137 3.97655 49.7652 4.62853 50.8929 5.42148ZM40.6551 5.50958L41.0428 5.59769V9.56243V13.5272L39.5097 13.4038C37.9591 13.2981 33.6772 12.6461 33.4305 12.4875C33.1661 12.3289 34.3996 10.2497 36.6199 7.09548L37.9591 5.1924L39.1044 5.29813C39.7388 5.36861 40.426 5.45672 40.6551 5.50958ZM46.5405 7.1131C47.8093 8.89283 49.8533 12.188 49.8533 12.4523C49.8533 12.5228 49.73 12.6109 49.589 12.6637C49.1308 12.8576 45.7476 13.2981 43.915 13.4214L42.1 13.5448V9.56243V5.59769L43.3864 5.42148C44.0736 5.33337 44.7784 5.24527 44.9194 5.22764C45.0604 5.22764 45.7828 6.05584 46.5405 7.1131Z" fill="#104099"/>
<path id="Vector_2" d="M66.3114 19.1483C58.0647 19.9412 53.2189 24.6461 52.285 32.7518C51.9678 35.5888 52.3202 39.0425 53.1661 41.5094C54.7167 45.9676 58.2409 49.0689 63.351 50.4433C64.9722 50.8839 65.3598 50.9191 68.7078 50.9191C71.8796 50.9367 72.514 50.8839 73.8708 50.5314C79.7739 49.0336 83.3686 45.5094 84.7783 39.7826C85.2893 37.7209 85.3245 33.3333 84.8664 31.1306C83.3686 24.1351 78.4347 19.9236 70.8048 19.1307C68.8488 18.9368 68.4083 18.9368 66.3114 19.1483ZM71.492 27.2364C73.3246 28.276 74.1528 31.3068 73.9237 36.2231C73.6594 42.0557 72.3554 43.6945 68.1792 43.3949C64.6902 43.1658 63.6858 41.2804 63.7035 34.9896C63.7211 31.4654 63.8797 30.1615 64.5493 28.7165C65.2541 27.2011 66.4876 26.6725 69.166 26.7782C70.4347 26.8135 70.9281 26.9192 71.492 27.2364Z" fill="#104099"/>
<path id="Vector_3" d="M30.6111 19.395C27.4746 19.9941 25.3424 21.1923 23.8446 23.2188C22.9107 24.4875 22.3997 25.8267 22.1883 27.5359C21.7654 30.8839 22.9812 33.7914 25.7125 35.8883C27.4217 37.2275 28.8667 37.8266 34.2587 39.4654C41.3952 41.6152 42.2411 41.9852 41.8181 42.6901C41.4481 43.3244 40.056 43.8354 38.4173 43.9412C34.6992 44.1526 30.805 42.4962 28.9548 39.9059L28.3204 39.0425H25.3424H22.3645V44.7694V50.4962H25.7125H29.0605V49.3508C29.0605 48.7165 29.0957 48.2055 29.1486 48.2055C29.2015 48.2055 30.1354 48.6284 31.2279 49.157C34.523 50.7605 37.3776 51.3244 40.6023 51.0072C47.0868 50.4081 50.9106 47.1658 51.2102 42.0381C51.3864 39.0777 50.5053 36.8575 48.3379 34.8311C46.3291 32.9632 44.5494 32.1527 38.2587 30.3201C31.8622 28.4699 31.175 28.1351 31.4217 27.1483C31.7741 25.7562 35.9503 25.6152 39.2983 26.9016C40.8842 27.5183 42.893 28.8751 43.7036 29.8795L44.2675 30.5844H47.2454H50.2058V25.2981V20.0117H46.9459H43.686V20.8752V21.7562L42.012 20.9633C39.5274 19.7827 37.4305 19.2893 34.4349 19.2012C32.7433 19.1659 31.5451 19.2188 30.6111 19.395Z" fill="#104099"/>
<path id="Vector_4" d="M0.690491 23.1835V26.8839H2.89313H5.09576V34.9896V43.0953H2.89313H0.690491V46.7958V50.4962H10.4702H20.2499V46.7958V43.113L18.012 43.0601L15.7565 43.0072L15.7037 34.9368L15.6684 26.8839H17.9592H20.2499V23.1835V19.4831H10.4702H0.690491V23.1835Z" fill="#104099"/>
<path id="Vector_5" d="M12.7609 54.4962C14.153 56.646 16.99 59.8178 19.2102 61.6856C27.6331 68.734 38.2763 71.4477 49.0075 69.2627C57.2365 67.5887 64.7607 62.7781 69.9061 55.9411C70.6109 55.0072 71.1748 54.1966 71.1748 54.1438C71.1748 54.0733 70.9105 54.0204 70.6109 54.0204C70.0999 54.038 69.9237 54.179 69.1484 55.3068C68.2497 56.5931 64.0911 60.9279 63.1925 61.5094C62.7343 61.8089 62.6991 61.8089 62.1352 61.386C61.8356 61.1393 60.8841 60.5402 60.0207 60.0292L58.4876 59.0953L59.5978 57.7561C60.9722 56.0821 62.3643 54.2495 62.3643 54.1262C62.3643 54.0733 62.1 54.0204 61.8004 54.0204C61.2894 54.038 61.0956 54.1966 60.1969 55.3949C59.6506 56.135 58.8048 57.1746 58.3467 57.7032L57.5185 58.6372L56.0207 58.0204C55.1925 57.6856 53.8357 57.1922 52.9899 56.9279C52.1264 56.6636 51.4392 56.4169 51.4392 56.3993C51.4392 56.3817 51.633 55.9059 51.8797 55.3596C52.426 54.1085 52.426 54.0204 51.8445 54.0204C51.404 54.0204 51.2982 54.1438 50.9106 55.0953C50.47 56.1526 50.47 56.1526 49.8533 56.0645C47.4568 55.6592 45.73 55.4301 44.0383 55.3244L42.1 55.201V54.6195C42.1 54.0733 42.0472 54.0204 41.5714 54.0204C41.0956 54.0204 41.0428 54.0733 41.0428 54.6195V55.2187L39.3335 55.342C37.8005 55.4477 34.3291 55.9587 33.219 56.2407C32.8666 56.3288 32.7609 56.2054 32.3027 55.1834C31.8269 54.1085 31.7565 54.038 31.2278 54.0204H30.6639L31.175 55.1834C31.4745 55.8178 31.7036 56.3993 31.7036 56.4698C31.7036 56.5402 31.1221 56.7693 30.4349 56.9984C29.73 57.2275 28.3908 57.7209 27.4745 58.1085L25.8005 58.8134L24.9723 57.8794C24.5142 57.3508 23.6331 56.2759 23.034 55.483C22.0472 54.2143 21.8534 54.038 21.36 54.038C21.0428 54.0204 20.7785 54.0733 20.7785 54.1438C20.7785 54.2847 22.0472 55.9411 23.6508 57.8618C24.3204 58.6724 24.8314 59.342 24.8137 59.3772C24.7785 59.3949 24.3556 59.6416 23.8622 59.9235C23.3864 60.1878 22.523 60.7341 21.9591 61.1041L20.9371 61.8089L20.2851 61.3156C19.1221 60.4521 15.7917 56.9631 14.6992 55.4654C13.7477 54.1614 13.5891 54.0204 13.0429 54.0204H12.4614L12.7609 54.4962ZM41.0428 60.2583V64.1878L39.9855 64.2935C39.404 64.364 38.7344 64.4521 38.5053 64.5226C38.1353 64.6107 37.9238 64.3992 36.7608 62.7957C35.5626 61.1393 33.5714 58.038 33.36 57.4565C33.2895 57.2979 33.5538 57.157 34.2939 56.9984C35.9679 56.646 38.3996 56.3464 39.774 56.3288L41.0428 56.3112V60.2583ZM46.6815 56.5755C49.4656 56.9631 49.8533 57.0513 49.8533 57.2627C49.8533 57.5799 47.9855 60.5578 46.5053 62.6371L45.2013 64.4521L44.3203 64.3464C43.8269 64.2935 43.122 64.2407 42.7696 64.2407H42.1V60.2759V56.3112H43.4745C44.2146 56.3112 45.6595 56.4345 46.6815 56.5755ZM52.2322 57.7209C53.9414 58.2142 56.7255 59.3068 56.7255 59.483C56.7255 59.8354 52.567 63.201 50.0824 64.8574L48.796 65.7032L47.7035 65.2979C47.0868 65.0688 46.5229 64.8398 46.4348 64.7517C46.3643 64.6812 46.611 64.1878 46.9987 63.6768C48.1617 62.1085 49.8533 59.4653 50.3996 58.3728C50.6815 57.8266 50.9282 57.3684 50.9634 57.3684C50.9811 57.3684 51.5625 57.527 52.2322 57.7209ZM32.7432 58.3728C33.1838 59.3068 34.9106 61.9852 36.1793 63.7296L36.9899 64.8398L35.915 65.3332C35.3159 65.5975 34.752 65.8266 34.6639 65.8266C34.0648 65.8266 26.5935 60.1349 26.5935 59.6768C26.5935 59.4477 31.404 57.5975 32.0736 57.5623C32.2146 57.5446 32.5142 57.8971 32.7432 58.3728ZM58.5405 60.2935C59.4744 60.7693 61.8356 62.32 61.8356 62.4609C61.8356 62.69 58.981 64.4521 56.9194 65.4741C55.7916 66.038 54.1176 66.7605 53.2013 67.0776L51.5097 67.6591L50.6815 67.0424C50.241 66.7076 49.8709 66.408 49.8533 66.3552C49.8533 66.3023 50.8225 65.5622 52.0207 64.734C53.2013 63.8882 54.981 62.4785 55.9326 61.6151C56.9017 60.7517 57.7652 60.0292 57.8357 60.0292C57.9061 60.0116 58.2233 60.1349 58.5405 60.2935ZM26.9283 61.386C28.4613 62.7605 30.5054 64.3288 32.3732 65.5622L33.6595 66.408L33.078 67.0072C32.7785 67.3243 32.3732 67.5887 32.197 67.5887C31.6683 67.5887 28.5847 66.3904 26.6816 65.4389C25.2895 64.734 22.2587 62.9367 21.8534 62.549C21.7124 62.4257 25.0957 60.2054 25.4305 60.1878C25.501 60.1878 26.1882 60.7341 26.9283 61.386ZM45.4833 65.6327C46.2234 65.8266 47.2278 66.1614 47.7212 66.3728C48.796 66.831 50.2938 67.8706 50.0824 67.9939C49.8357 68.1525 47.3864 68.6107 45.8005 68.8045C43.8974 69.0512 39.9679 69.0512 38.0472 68.8221C35.8974 68.5578 33.6419 68.0997 33.6419 67.9235C33.6419 67.6063 35.686 66.4609 37.078 65.9675C37.8533 65.7032 38.9987 65.4036 39.6331 65.3155C41.2014 65.0688 43.8798 65.2274 45.4833 65.6327Z" fill="#104099"/>
</g>
</svg>
